<?xml version="1.0" encoding="UTF-8" standalone="no"?>
<svg width="1202px" height="902px" viewBox="0 0 1202 902" version="1.1" xmlns="http://www.w3.org/2000/svg" xmlns:xlink="http://www.w3.org/1999/xlink" xmlns:sketch="http://www.bohemiancoding.com/sketch/ns">
    <!-- Generator: Sketch 3.3.3 (12072) - http://www.bohemiancoding.com/sketch -->
    <title>Slice 1</title>
    <desc>Created with Sketch.</desc>
    <defs>
        <linearGradient x1="109.247174%" y1="100%" x2="9.14247563%" y2="50%" id="linearGradient-1">
            <stop stop-color="#FF87EF" offset="0%"></stop>
            <stop stop-color="#A0D0FC" offset="100%"></stop>
        </linearGradient>
        <linearGradient x1="83.8582251%" y1="21.9667568%" x2="0%" y2="100%" id="linearGradient-2">
            <stop stop-color="#C5F3FF" offset="0%"></stop>
            <stop stop-color="#377FEE" offset="100%"></stop>
        </linearGradient>
    </defs>
    <g id="Page-4" stroke="none" stroke-width="1" fill="none" fill-rule="evenodd" sketch:type="MSPage">
        <g id="Path-5-Copy-5-+-Path-6-Copy-4-Copy" sketch:type="MSLayerGroup" transform="translate(28.000000, 0.000000)">
            <path d="M4,559.25382 C4,559.25382 450.501099,614.686715 673.751648,642.403163 C739.792548,650.602109 871.874347,667 871.874347,667 L957.239037,637.879411 C957.239037,637.879411 882.729272,634.329695 874.89513,632.325336 C867.060989,630.320977 846.910679,633.665505 850.868486,607.41912 C854.826293,581.172735 955.353788,572.423941 965.644023,572.423941 C975.934257,572.423941 1040.84184,571.012737 1059.04756,565.133279 C1077.25328,559.25382 1100.99992,549.822887 1101,527.950901 C1101.00008,506.078915 1070.12933,490.768523 1039.25868,485.66506 C1008.38802,480.561596 914.192921,473.999995 835.828933,474 C731.650639,474.000007 662.17706,478.073267 544.092031,483.850689 C426.007002,489.628112 264.314041,516.414913 264.314041,516.414913 L4,559.25382 Z" id="Path-5-Copy-5" fill="url(#linearGradient-1)" sketch:type="MSShapeGroup"></path>
            <path d="M842.813023,0 L0,534 C0,534 355.849092,472.122877 548.528643,458.055125 C741.208194,443.987373 882.547894,445.225186 882.547894,445.225186 C882.547894,445.225186 954.770182,412.115272 1029.02755,369.629158 C1066.08338,348.427784 1105.22192,290.837284 1095.28795,251.730199 C1085.31492,212.469339 1026.1838,191.725873 1019.88817,188.00104 C1007.32157,180.565964 990.185239,172.068742 990.185239,143.390622 C990.185239,114.712502 1002.75192,103.02882 1029.02755,83.910069 C1055.30318,64.7913177 1101,56.2940984 1101,56.2940984 L842.813023,0 Z" id="Path-6-Copy-4" fill="url(#linearGradient-2)" sketch:type="MSShapeGroup"></path>
        </g>
        <path d="M50.28125,842.962891 C48.7031171,842.962891 47.256517,842.305345 45.9414062,840.990234 L12.8007812,792.660156 L12.8007812,891.490234 C12.8007812,896.750677 10.7623902,899.380859 6.68554688,899.380859 C2.60870357,899.380859 0.5703125,896.882186 0.5703125,891.884766 L0.5703125,778.851562 C0.5703125,773.722631 2.47719447,771.158203 6.29101562,771.158203 C8.92123711,771.158203 11.1568918,772.539049 12.9980469,775.300781 L50.28125,828.957031 L87.7617188,775.300781 C89.7343849,772.539049 91.904285,771.158203 94.2714844,771.158203 C98.2168166,771.158203 100.189453,773.722631 100.189453,778.851562 L100.189453,891.884766 C100.189453,896.882186 98.0853075,899.380859 93.8769531,899.380859 C89.9316209,899.380859 87.9589844,896.750677 87.9589844,891.490234 L87.9589844,792.660156 L54.8183594,840.990234 C53.7662708,842.305345 52.2539161,842.962891 50.28125,842.962891 L50.28125,842.962891 Z M209.392578,778.259766 C209.392578,773.525367 211.496724,771.158203 215.705078,771.158203 C219.65041,771.158203 221.623047,773.591122 221.623047,778.457031 L221.623047,852.826172 C221.623047,867.423901 217.184615,878.89807 208.307617,887.249023 C199.43062,895.599977 187.956451,899.775391 173.884766,899.775391 C159.68157,899.775391 148.174523,895.599977 139.363281,887.249023 C130.552039,878.89807 126.146484,867.423901 126.146484,852.826172 L126.146484,778.457031 C126.146484,773.591122 128.184875,771.158203 132.261719,771.158203 C136.338562,771.158203 138.376953,773.525367 138.376953,778.259766 L138.376953,852.431641 C138.376953,863.610082 141.401662,872.256805 147.451172,878.37207 C153.500681,884.487335 162.311791,887.544922 173.884766,887.544922 C185.45774,887.544922 194.26885,884.487335 200.318359,878.37207 C206.367869,872.256805 209.392578,863.610082 209.392578,852.431641 L209.392578,778.259766 Z M255.273438,803.707031 C255.273438,808.572941 256.358388,812.748355 258.52832,816.233398 C260.698253,819.718442 263.295558,821.855465 266.320312,822.644531 L316.820312,832.507812 C326.157599,834.348968 332.831686,838.42575 336.842773,844.738281 C340.853861,851.050813 342.859375,858.415323 342.859375,866.832031 C342.859375,870.908875 342.300461,874.755516 341.182617,878.37207 C340.064773,881.988625 338.223646,885.473616 335.65918,888.827148 C333.094714,892.180681 329.412459,894.810863 324.612305,896.717773 C319.81215,898.624684 314.124382,899.578125 307.548828,899.578125 L289.794922,899.578125 C273.487549,899.578125 261.618852,897.145207 254.188477,892.279297 C246.758101,887.413387 243.042969,877.681714 243.042969,863.083984 C243.042969,858.086564 245.212869,855.587891 249.552734,855.587891 C251.393889,855.587891 252.84049,856.278313 253.892578,857.65918 C254.944667,859.040046 255.470703,860.848296 255.470703,863.083984 C255.470703,873.60487 257.739235,880.278957 262.276367,883.106445 C266.813499,885.933933 275.986259,887.347656 289.794922,887.347656 L311.494141,887.347656 C316.228539,887.347656 320.140935,886.065443 323.231445,883.500977 C326.321956,880.936511 328.327469,878.207697 329.248047,875.314453 C330.168624,872.421209 330.628906,869.462255 330.628906,866.4375 C330.628906,860.25648 329.412447,855.292011 326.979492,851.543945 C324.546537,847.79588 322.080742,845.658857 319.582031,845.132812 L269.476562,834.875 C260.007765,832.902334 253.235046,829.417343 249.158203,824.419922 C245.08136,819.422501 243.042969,812.386764 243.042969,803.3125 C243.042969,794.369747 245.969046,786.742219 251.821289,780.429688 C257.673532,774.117156 267.372328,770.960938 280.917969,770.960938 L295.910156,770.960938 C304.063843,770.960938 310.73793,771.388342 315.932617,772.243164 C321.127305,773.097986 325.927387,774.774727 330.333008,777.273438 C334.738629,779.772148 337.927725,783.454403 339.900391,788.320312 C341.873057,793.186222 342.859375,799.432905 342.859375,807.060547 C342.859375,812.057968 340.755229,814.556641 336.546875,814.556641 C334.70572,814.556641 333.226243,813.866218 332.108398,812.485352 C330.990554,811.104485 330.431641,809.296235 330.431641,807.060547 C330.431641,801.537082 329.938481,797.197281 328.952148,794.041016 C327.965815,790.88475 325.927424,788.484709 322.836914,786.84082 C319.746404,785.196932 316.327167,784.177736 312.579102,783.783203 C308.831036,783.38867 303.274776,783.191406 295.910156,783.191406 L275.789062,783.191406 C268.424442,783.191406 263.164078,785.361306 260.007812,789.701172 C256.851547,794.041037 255.273438,798.70961 255.273438,803.707031 L255.273438,803.707031 Z M383.693359,892.279297 C383.693359,897.013696 381.589214,899.380859 377.380859,899.380859 C373.435527,899.380859 371.462891,897.013696 371.462891,892.279297 L371.462891,778.457031 C371.462891,773.591122 373.501282,771.158203 377.578125,771.158203 C381.654968,771.158203 383.693359,773.591122 383.693359,778.457031 L383.693359,892.279297 Z M422.064453,892.279297 C422.064453,897.013696 419.960307,899.380859 415.751953,899.380859 C411.806621,899.380859 409.833984,897.013696 409.833984,892.279297 L409.833984,778.457031 C409.833984,773.591122 411.872375,771.158203 415.949219,771.158203 C420.026062,771.158203 422.064453,773.591122 422.064453,778.457031 L422.064453,892.279297 Z M538.974609,893.462891 C538.974609,895.172535 538.284187,896.586257 536.90332,897.704102 C535.522454,898.821946 534.174486,899.380859 532.859375,899.380859 C530.886709,899.380859 528.979827,898.263032 527.138672,896.027344 L471.904297,835.072266 L462.435547,846.513672 L462.435547,892.082031 C462.435547,896.947941 460.331401,899.380859 456.123047,899.380859 C452.177715,899.380859 450.205078,897.013696 450.205078,892.279297 L450.205078,778.457031 C450.205078,773.591122 452.243469,771.158203 456.320312,771.158203 C460.397156,771.158203 462.435547,773.656876 462.435547,778.654297 L462.435547,831.324219 L514.119141,774.511719 C516.091807,772.27603 517.998689,771.158203 519.839844,771.158203 C521.154954,771.158203 522.470046,771.717117 523.785156,772.834961 C525.100267,773.952805 525.757812,775.300773 525.757812,776.878906 C525.757812,778.58855 525.034512,780.298169 523.587891,782.007812 L480.386719,827.970703 L536.607422,888.53125 C538.185555,890.372405 538.974609,892.016269 538.974609,893.462891 L538.974609,893.462891 Z M570.761719,892.279297 C570.761719,897.013696 568.657573,899.380859 564.449219,899.380859 C560.503887,899.380859 558.53125,897.013696 558.53125,892.279297 L558.53125,778.457031 C558.53125,773.591122 560.569641,771.158203 564.646484,771.158203 C568.723328,771.158203 570.761719,773.591122 570.761719,778.457031 L570.761719,892.279297 Z M688.460938,899.380859 C686.225249,899.380859 684.64714,898.920578 683.726562,898 L611.132812,793.449219 L611.132812,892.279297 C611.132812,897.013696 609.094421,899.380859 605.017578,899.380859 C600.940735,899.380859 598.902344,896.882186 598.902344,891.884766 L598.902344,778.851562 C598.902344,773.722631 600.809226,771.158203 604.623047,771.158203 C607.253268,771.158203 609.488923,772.539049 611.330078,775.300781 L682.148438,876.892578 L682.148438,779.246094 C682.148438,773.85414 684.121074,771.158203 688.066406,771.158203 C692.274761,771.158203 694.378906,773.722631 694.378906,778.851562 L694.378906,891.884766 C694.378906,896.882186 692.40627,899.380859 688.460938,899.380859 L688.460938,899.380859 Z M842.048828,772.539062 C847.046249,772.539062 849.544922,774.643208 849.544922,778.851562 C849.544922,782.796895 847.046249,784.769531 842.048828,784.769531 L812.458984,784.769531 L812.458984,892.279297 C812.458984,894.909518 811.735684,896.750646 810.289063,897.802734 C808.842441,898.854823 807.198577,899.380859 805.357422,899.380859 C801.017556,899.380859 798.847656,897.013696 798.847656,892.279297 L798.847656,784.769531 L768.863281,784.769531 C763.86586,784.769531 761.367188,782.73114 761.367188,778.654297 C761.367188,774.577454 763.86586,772.539062 768.863281,772.539062 L842.048828,772.539062 Z M900.166016,772.539062 L945.931641,891.884766 C946.326174,893.068365 946.523438,894.186193 946.523438,895.238281 C946.523438,897.342458 945.800137,898.854813 944.353516,899.775391 C942.906894,900.695968 941.591803,901.15625 940.408203,901.15625 C937.514959,901.15625 935.410814,899.446632 934.095703,896.027344 L920.287109,859.730469 L865.841797,859.730469 L852.033203,896.027344 C850.586581,899.446632 848.482436,901.15625 845.720703,901.15625 C844.537103,901.15625 843.222012,900.695968 841.775391,899.775391 C840.328769,898.854813 839.605469,897.342458 839.605469,895.238281 C839.605469,894.186193 839.802732,893.068365 840.197266,891.884766 L885.962891,772.539062 L900.166016,772.539062 Z M915.552734,847.5 L892.867188,790.292969 L870.576172,847.5 L915.552734,847.5 Z M975.058594,892.279297 C975.058594,897.013696 972.954448,899.380859 968.746094,899.380859 C964.800762,899.380859 962.828125,897.013696 962.828125,892.279297 L962.828125,778.457031 C962.828125,773.591122 964.866516,771.158203 968.943359,771.158203 C973.020203,771.158203 975.058594,773.591122 975.058594,778.457031 L975.058594,892.279297 Z M1090.96875,893.462891 C1090.96875,895.172535 1090.27833,896.586257 1088.89746,897.704102 C1087.51659,898.821946 1086.16863,899.380859 1084.85352,899.380859 C1082.88085,899.380859 1080.97397,898.263032 1079.13281,896.027344 L1023.89844,835.072266 L1014.42969,846.513672 L1014.42969,892.082031 C1014.42969,896.947941 1012.32554,899.380859 1008.11719,899.380859 C1004.17186,899.380859 1002.19922,897.013696 1002.19922,892.279297 L1002.19922,778.457031 C1002.19922,773.591122 1004.23761,771.158203 1008.31445,771.158203 C1012.3913,771.158203 1014.42969,773.656876 1014.42969,778.654297 L1014.42969,831.324219 L1066.11328,774.511719 C1068.08595,772.27603 1069.99283,771.158203 1071.83398,771.158203 C1073.1491,771.158203 1074.46419,771.717117 1075.7793,772.834961 C1077.09441,773.952805 1077.75195,775.300773 1077.75195,776.878906 C1077.75195,778.58855 1077.02865,780.298169 1075.58203,782.007812 L1032.38086,827.970703 L1088.60156,888.53125 C1090.1797,890.372405 1090.96875,892.016269 1090.96875,893.462891 L1090.96875,893.462891 Z M1155.25,772.539062 L1201.01562,891.884766 C1201.41016,893.068365 1201.60742,894.186193 1201.60742,895.238281 C1201.60742,897.342458 1200.88412,898.854813 1199.4375,899.775391 C1197.99088,900.695968 1196.67579,901.15625 1195.49219,901.15625 C1192.59894,901.15625 1190.4948,899.446632 1189.17969,896.027344 L1175.37109,859.730469 L1120.92578,859.730469 L1107.11719,896.027344 C1105.67057,899.446632 1103.56642,901.15625 1100.80469,901.15625 C1099.62109,901.15625 1098.306,900.695968 1096.85938,899.775391 C1095.41275,898.854813 1094.68945,897.342458 1094.68945,895.238281 C1094.68945,894.186193 1094.88672,893.068365 1095.28125,891.884766 L1141.04688,772.539062 L1155.25,772.539062 Z M1170.63672,847.5 L1147.95117,790.292969 L1125.66016,847.5 L1170.63672,847.5 Z" id="MUSIIKIN-TAIKA" fill="#293037" sketch:type="MSShapeGroup"></path>
    </g>
</svg>